<?xml version="1.0" standalone="no"?><!DOCTYPE svg PUBLIC "-//W3C//DTD SVG 1.1//EN" "http://www.w3.org/Graphics/SVG/1.1/DTD/svg11.dtd"><svg width="64" height="64" viewBox="0 0 64 64" version="1.1" xmlns="http://www.w3.org/2000/svg" xmlns:xlink="http://www.w3.org/1999/xlink"><defs><style type="text/css"><![CDATA[
@font-face { font-family: ifont; src: url(http://at.alicdn.com/t/font_1442373896_4754455.eot?#iefix) format(embedded-opentype), url(http://at.alicdn.com/t/font_1442373896_4754455.woff) format(woff), url(http://at.alicdn.com/t/font_1442373896_4754455.ttf) format(truetype), url(http://at.alicdn.com/t/font_1442373896_4754455.svg#ifont) format(svg); }

]]></style></defs><g class="transform-group"><g transform="scale(0.0625, 0.0625)"><path d="M512 1002.666667c-131.06176 0-254.277973-51.037867-346.953387-143.71328S21.333333 643.060053 21.333333 512c0-131.06176 51.037867-254.27968 143.71328-346.953387C257.72032 72.3712 380.93824 21.333333 512 21.333333s254.277973 51.037867 346.953387 143.71328C951.6288 257.72032 1002.666667 380.93824 1002.666667 512c0 131.060053-51.037867 254.27968-143.71328 346.953387S643.06176 1002.666667 512 1002.666667zM512 55.466667c-251.733333 0-456.533333 204.8-456.533333 456.533333 0 251.733333 204.8 456.533333 456.533333 456.533333s456.533333-204.8 456.533333-456.533333C968.533333 260.266667 763.733333 55.466667 512 55.466667zM512.853333 888.598187c-73.501013 0-141.223253-24.000853-190.687573-67.584C270.692693 775.66464 242.346667 711.478613 242.346667 640.278187c0-24.966827 14.62784-59.487573 84.317867-82.174293 46.349653-15.08864 110.731947-23.063893 186.1888-23.063893 75.455147 0 139.839147 7.975253 186.1888 23.063893C768.73216 580.790613 783.36 615.31136 783.36 640.278187c0 71.200427-28.346027 135.386453-79.819093 180.736C654.076587 864.597333 586.354347 888.598187 512.853333 888.598187zM512.853333 560.64c-148.775253 0-244.906667 31.259307-244.906667 79.638187 0 129.053013 102.99904 222.72 244.906667 222.72S757.76 769.3312 757.76 640.278187C757.76 591.899307 661.628587 560.64 512.853333 560.64zM401.92 335.36c-7.069013 0-12.8-5.730987-12.8-12.8 0-35.95776-30.429867-52.053333-60.586667-52.053333S267.946667 286.60224 267.946667 322.56c0 7.069013-5.730987 12.8-12.8 12.8s-12.8-5.730987-12.8-12.8c0-22.925653 9.25696-43.32032 26.064213-57.429333 15.537493-13.042347 36.8896-20.224 60.122453-20.224s44.58496 7.181653 60.122453 20.224C405.46304 279.23968 414.72 299.634347 414.72 322.56 414.72 329.629013 408.989013 335.36 401.92 335.36zM769.706667 335.36c-7.07072 0-12.8-5.730987-12.8-12.8 0-35.95776-30.429867-52.053333-60.586667-52.053333s-60.586667 16.095573-60.586667 52.053333c0 7.069013-5.72928 12.8-12.8 12.8s-12.8-5.730987-12.8-12.8c0-22.925653 9.25696-43.32032 26.064213-57.429333 15.537493-13.042347 36.8896-20.224 60.122453-20.224s44.583253 7.181653 60.122453 20.224c16.80896 14.109013 26.064213 34.50368 26.064213 57.429333C782.506667 329.629013 776.777387 335.36 769.706667 335.36z" fill="#272636"></path></g></g></svg>